<mxfile host="Electron" agent="Mozilla/5.0 (Windows NT 10.0; Win64; x64) AppleWebKit/537.36 (KHTML, like Gecko) draw.io/26.2.2 Chrome/134.0.6998.178 Electron/35.1.2 Safari/537.36" version="26.2.2">
  <diagram name="Pagina-1" id="WBtmyoJHWjyC_bu1IMYA">
    <mxGraphModel dx="1871" dy="626" grid="1" gridSize="10" guides="1" tooltips="1" connect="1" arrows="1" fold="1" page="1" pageScale="1" pageWidth="827" pageHeight="1169" math="0" shadow="0">
      <root>
        <mxCell id="0" />
        <mxCell id="1" parent="0" />
        <mxCell id="w8rwrNL4SyuGgu5Xzu-1-1" value="" style="ellipse;html=1;shape=startState;fillColor=#000000;strokeColor=#ff0000;" parent="1" vertex="1">
          <mxGeometry x="280" y="80" width="40" height="40" as="geometry" />
        </mxCell>
        <mxCell id="w8rwrNL4SyuGgu5Xzu-1-2" value="caricamento elenco attività dal database" style="edgeStyle=orthogonalEdgeStyle;html=1;verticalAlign=bottom;endArrow=open;endSize=8;strokeColor=#ff0000;" parent="1" source="w8rwrNL4SyuGgu5Xzu-1-1" target="w8rwrNL4SyuGgu5Xzu-1-15" edge="1">
          <mxGeometry relative="1" as="geometry">
            <mxPoint x="300" y="160" as="targetPoint" />
            <mxPoint as="offset" />
          </mxGeometry>
        </mxCell>
        <mxCell id="w8rwrNL4SyuGgu5Xzu-1-9" style="edgeStyle=orthogonalEdgeStyle;shape=connector;rounded=0;orthogonalLoop=1;jettySize=auto;html=1;strokeColor=#ff0000;align=center;verticalAlign=bottom;fontFamily=Helvetica;fontSize=11;fontColor=default;labelBackgroundColor=default;endArrow=open;endSize=8;" parent="1" source="w8rwrNL4SyuGgu5Xzu-1-15" target="w8rwrNL4SyuGgu5Xzu-1-23" edge="1">
          <mxGeometry relative="1" as="geometry">
            <mxPoint x="440" y="420.03999999999996" as="targetPoint" />
            <Array as="points">
              <mxPoint x="300" y="420" />
            </Array>
          </mxGeometry>
        </mxCell>
        <mxCell id="w8rwrNL4SyuGgu5Xzu-1-10" value="click pulsante&lt;div&gt;avvio sessione corrente&lt;/div&gt;" style="edgeLabel;html=1;align=center;verticalAlign=middle;resizable=0;points=[];fontFamily=Helvetica;fontSize=11;fontColor=default;labelBackgroundColor=default;" parent="w8rwrNL4SyuGgu5Xzu-1-9" vertex="1" connectable="0">
          <mxGeometry x="0.5571" y="1" relative="1" as="geometry">
            <mxPoint as="offset" />
          </mxGeometry>
        </mxCell>
        <mxCell id="w8rwrNL4SyuGgu5Xzu-1-11" style="edgeStyle=orthogonalEdgeStyle;shape=connector;rounded=0;orthogonalLoop=1;jettySize=auto;html=1;strokeColor=#ff0000;align=center;verticalAlign=bottom;fontFamily=Helvetica;fontSize=11;fontColor=default;labelBackgroundColor=default;endArrow=open;endSize=8;" parent="1" source="w8rwrNL4SyuGgu5Xzu-1-15" target="w8rwrNL4SyuGgu5Xzu-1-26" edge="1">
          <mxGeometry relative="1" as="geometry">
            <Array as="points">
              <mxPoint x="260" y="140" />
              <mxPoint x="20" y="140" />
            </Array>
          </mxGeometry>
        </mxCell>
        <mxCell id="1m9HsHr5d-REhl0mns74-3" value="chiusura pagina" style="edgeLabel;html=1;align=center;verticalAlign=middle;resizable=0;points=[];" vertex="1" connectable="0" parent="w8rwrNL4SyuGgu5Xzu-1-11">
          <mxGeometry x="0.2588" y="-2" relative="1" as="geometry">
            <mxPoint as="offset" />
          </mxGeometry>
        </mxCell>
        <mxCell id="w8rwrNL4SyuGgu5Xzu-1-15" value="Pagina home caregiver" style="rounded=1;whiteSpace=wrap;html=1;arcSize=40;fontColor=#000000;fillColor=#ffffc0;strokeColor=#ff0000;" parent="1" vertex="1">
          <mxGeometry x="240" y="160" width="120" height="40" as="geometry" />
        </mxCell>
        <mxCell id="w8rwrNL4SyuGgu5Xzu-1-23" value="sessione terminata?" style="rhombus;whiteSpace=wrap;html=1;fontColor=#000000;fillColor=#ffffc0;strokeColor=#ff0000;fontFamily=Helvetica;fontSize=11;labelBackgroundColor=none;" parent="1" vertex="1">
          <mxGeometry x="620" y="400" width="80" height="40" as="geometry" />
        </mxCell>
        <mxCell id="w8rwrNL4SyuGgu5Xzu-1-24" value="no" style="edgeStyle=orthogonalEdgeStyle;html=1;align=left;verticalAlign=bottom;endArrow=open;endSize=8;strokeColor=#ff0000;rounded=0;fontFamily=Helvetica;fontSize=11;fontColor=default;labelBackgroundColor=default;" parent="1" source="w8rwrNL4SyuGgu5Xzu-1-23" target="w8rwrNL4SyuGgu5Xzu-1-41" edge="1">
          <mxGeometry relative="1" as="geometry">
            <mxPoint x="660" y="480" as="targetPoint" />
            <Array as="points" />
            <mxPoint as="offset" />
          </mxGeometry>
        </mxCell>
        <mxCell id="w8rwrNL4SyuGgu5Xzu-1-25" value="sì" style="edgeStyle=orthogonalEdgeStyle;html=1;align=left;verticalAlign=top;endArrow=open;endSize=8;strokeColor=#ff0000;rounded=0;fontFamily=Helvetica;fontSize=11;fontColor=default;labelBackgroundColor=default;" parent="1" source="w8rwrNL4SyuGgu5Xzu-1-23" target="w8rwrNL4SyuGgu5Xzu-1-15" edge="1">
          <mxGeometry x="-0.9344" relative="1" as="geometry">
            <mxPoint x="640" y="500" as="targetPoint" />
            <Array as="points">
              <mxPoint x="660" y="140" />
              <mxPoint x="350" y="140" />
            </Array>
            <mxPoint as="offset" />
          </mxGeometry>
        </mxCell>
        <mxCell id="w8rwrNL4SyuGgu5Xzu-1-26" value="" style="ellipse;html=1;shape=endState;fillColor=#000000;strokeColor=#ff0000;fontFamily=Helvetica;fontSize=11;fontColor=default;labelBackgroundColor=default;" parent="1" vertex="1">
          <mxGeometry y="40" width="40" height="40" as="geometry" />
        </mxCell>
        <mxCell id="w8rwrNL4SyuGgu5Xzu-1-31" style="edgeStyle=orthogonalEdgeStyle;shape=connector;rounded=0;orthogonalLoop=1;jettySize=auto;html=1;strokeColor=#ff0000;align=center;verticalAlign=bottom;fontFamily=Helvetica;fontSize=11;fontColor=default;labelBackgroundColor=default;endArrow=open;endSize=8;" parent="1" source="w8rwrNL4SyuGgu5Xzu-1-41" target="w8rwrNL4SyuGgu5Xzu-1-43" edge="1">
          <mxGeometry relative="1" as="geometry">
            <Array as="points">
              <mxPoint x="780" y="490" />
              <mxPoint x="780" y="490" />
            </Array>
          </mxGeometry>
        </mxCell>
        <mxCell id="w8rwrNL4SyuGgu5Xzu-1-32" value="indovinare colore parola" style="edgeLabel;html=1;align=center;verticalAlign=middle;resizable=0;points=[];fontFamily=Helvetica;fontSize=11;fontColor=default;labelBackgroundColor=default;" parent="w8rwrNL4SyuGgu5Xzu-1-31" vertex="1" connectable="0">
          <mxGeometry x="-0.5534" y="1" relative="1" as="geometry">
            <mxPoint x="75" as="offset" />
          </mxGeometry>
        </mxCell>
        <mxCell id="w8rwrNL4SyuGgu5Xzu-1-33" style="edgeStyle=orthogonalEdgeStyle;shape=connector;rounded=0;orthogonalLoop=1;jettySize=auto;html=1;strokeColor=#ff0000;align=center;verticalAlign=bottom;fontFamily=Helvetica;fontSize=11;fontColor=default;labelBackgroundColor=default;endArrow=open;endSize=8;" parent="1" source="w8rwrNL4SyuGgu5Xzu-1-41" target="w8rwrNL4SyuGgu5Xzu-1-45" edge="1">
          <mxGeometry relative="1" as="geometry">
            <Array as="points">
              <mxPoint x="720" y="510" />
              <mxPoint x="720" y="620" />
            </Array>
          </mxGeometry>
        </mxCell>
        <mxCell id="w8rwrNL4SyuGgu5Xzu-1-34" value="ora analogica in digitale" style="edgeLabel;html=1;align=center;verticalAlign=middle;resizable=0;points=[];fontFamily=Helvetica;fontSize=11;fontColor=default;labelBackgroundColor=default;" parent="w8rwrNL4SyuGgu5Xzu-1-33" vertex="1" connectable="0">
          <mxGeometry x="-0.0426" y="1" relative="1" as="geometry">
            <mxPoint x="79" y="2" as="offset" />
          </mxGeometry>
        </mxCell>
        <mxCell id="w8rwrNL4SyuGgu5Xzu-1-35" style="edgeStyle=orthogonalEdgeStyle;shape=connector;rounded=0;orthogonalLoop=1;jettySize=auto;html=1;strokeColor=#ff0000;align=center;verticalAlign=bottom;fontFamily=Helvetica;fontSize=11;fontColor=default;labelBackgroundColor=default;endArrow=open;endSize=8;" parent="1" source="w8rwrNL4SyuGgu5Xzu-1-41" target="w8rwrNL4SyuGgu5Xzu-1-47" edge="1">
          <mxGeometry relative="1" as="geometry">
            <Array as="points">
              <mxPoint x="540" y="490" />
              <mxPoint x="540" y="490" />
            </Array>
          </mxGeometry>
        </mxCell>
        <mxCell id="w8rwrNL4SyuGgu5Xzu-1-36" value="abbinamento oggetto-parola" style="edgeLabel;html=1;align=center;verticalAlign=middle;resizable=0;points=[];fontFamily=Helvetica;fontSize=11;fontColor=default;labelBackgroundColor=default;" parent="w8rwrNL4SyuGgu5Xzu-1-35" vertex="1" connectable="0">
          <mxGeometry x="0.3957" relative="1" as="geometry">
            <mxPoint x="30" as="offset" />
          </mxGeometry>
        </mxCell>
        <mxCell id="w8rwrNL4SyuGgu5Xzu-1-37" style="edgeStyle=orthogonalEdgeStyle;shape=connector;rounded=0;orthogonalLoop=1;jettySize=auto;html=1;strokeColor=#ff0000;align=center;verticalAlign=bottom;fontFamily=Helvetica;fontSize=11;fontColor=default;labelBackgroundColor=default;endArrow=open;endSize=8;" parent="1" source="w8rwrNL4SyuGgu5Xzu-1-41" target="w8rwrNL4SyuGgu5Xzu-1-49" edge="1">
          <mxGeometry relative="1" as="geometry">
            <Array as="points">
              <mxPoint x="600" y="510" />
              <mxPoint x="600" y="620" />
            </Array>
          </mxGeometry>
        </mxCell>
        <mxCell id="w8rwrNL4SyuGgu5Xzu-1-38" value="riordinamento lettere in parola" style="edgeLabel;html=1;align=center;verticalAlign=middle;resizable=0;points=[];fontFamily=Helvetica;fontSize=11;fontColor=default;labelBackgroundColor=default;" parent="w8rwrNL4SyuGgu5Xzu-1-37" vertex="1" connectable="0">
          <mxGeometry x="-0.0688" y="-2" relative="1" as="geometry">
            <mxPoint x="-58" y="6" as="offset" />
          </mxGeometry>
        </mxCell>
        <mxCell id="w8rwrNL4SyuGgu5Xzu-1-39" style="edgeStyle=orthogonalEdgeStyle;shape=connector;rounded=0;orthogonalLoop=1;jettySize=auto;html=1;strokeColor=#ff0000;align=center;verticalAlign=bottom;fontFamily=Helvetica;fontSize=11;fontColor=default;labelBackgroundColor=default;endArrow=open;endSize=8;" parent="1" source="w8rwrNL4SyuGgu5Xzu-1-41" target="w8rwrNL4SyuGgu5Xzu-1-51" edge="1">
          <mxGeometry relative="1" as="geometry">
            <mxPoint x="660" y="680" as="targetPoint" />
          </mxGeometry>
        </mxCell>
        <mxCell id="w8rwrNL4SyuGgu5Xzu-1-40" value="riordinamento&lt;div&gt;numeri&lt;/div&gt;" style="edgeLabel;html=1;align=center;verticalAlign=middle;resizable=0;points=[];fontFamily=Helvetica;fontSize=11;fontColor=default;labelBackgroundColor=default;" parent="w8rwrNL4SyuGgu5Xzu-1-39" vertex="1" connectable="0">
          <mxGeometry x="0.3015" y="-1" relative="1" as="geometry">
            <mxPoint as="offset" />
          </mxGeometry>
        </mxCell>
        <mxCell id="w8rwrNL4SyuGgu5Xzu-1-41" value="" style="shape=rhombus;html=1;verticalLabelPosition=bottom;verticalAlignment=top;fontFamily=Helvetica;fontSize=11;fontColor=#000000;labelBackgroundColor=none;strokeColor=#ff0000;align=center;verticalAlign=top;fillColor=#ffffc0;" parent="1" vertex="1">
          <mxGeometry x="640" y="480" width="40" height="40" as="geometry" />
        </mxCell>
        <mxCell id="w8rwrNL4SyuGgu5Xzu-1-42" style="edgeStyle=orthogonalEdgeStyle;shape=connector;rounded=0;orthogonalLoop=1;jettySize=auto;html=1;strokeColor=#ff0000;align=center;verticalAlign=bottom;fontFamily=Helvetica;fontSize=11;fontColor=default;labelBackgroundColor=default;endArrow=open;endSize=8;" parent="1" source="w8rwrNL4SyuGgu5Xzu-1-43" target="w8rwrNL4SyuGgu5Xzu-1-53" edge="1">
          <mxGeometry relative="1" as="geometry">
            <Array as="points">
              <mxPoint x="1040" y="500" />
              <mxPoint x="1040" y="830" />
            </Array>
          </mxGeometry>
        </mxCell>
        <mxCell id="w8rwrNL4SyuGgu5Xzu-1-43" value="Attività indovinare colore parola" style="rounded=1;whiteSpace=wrap;html=1;arcSize=40;fontColor=#000000;fillColor=#ffffc0;strokeColor=#ff0000;" parent="1" vertex="1">
          <mxGeometry x="880" y="480" width="120" height="40" as="geometry" />
        </mxCell>
        <mxCell id="w8rwrNL4SyuGgu5Xzu-1-44" style="edgeStyle=orthogonalEdgeStyle;shape=connector;rounded=0;orthogonalLoop=1;jettySize=auto;html=1;strokeColor=#ff0000;align=center;verticalAlign=bottom;fontFamily=Helvetica;fontSize=11;fontColor=default;labelBackgroundColor=default;endArrow=open;endSize=8;" parent="1" source="w8rwrNL4SyuGgu5Xzu-1-45" target="w8rwrNL4SyuGgu5Xzu-1-53" edge="1">
          <mxGeometry relative="1" as="geometry">
            <Array as="points">
              <mxPoint x="940" y="810" />
            </Array>
          </mxGeometry>
        </mxCell>
        <mxCell id="w8rwrNL4SyuGgu5Xzu-1-45" value="Attività ora analogica in digitale" style="rounded=1;whiteSpace=wrap;html=1;arcSize=40;fontColor=#000000;fillColor=#ffffc0;strokeColor=#ff0000;" parent="1" vertex="1">
          <mxGeometry x="880" y="600" width="120" height="40" as="geometry" />
        </mxCell>
        <mxCell id="w8rwrNL4SyuGgu5Xzu-1-46" style="edgeStyle=orthogonalEdgeStyle;shape=connector;rounded=0;orthogonalLoop=1;jettySize=auto;html=1;strokeColor=#ff0000;align=center;verticalAlign=bottom;fontFamily=Helvetica;fontSize=11;fontColor=default;labelBackgroundColor=default;endArrow=open;endSize=8;" parent="1" source="w8rwrNL4SyuGgu5Xzu-1-47" target="w8rwrNL4SyuGgu5Xzu-1-53" edge="1">
          <mxGeometry relative="1" as="geometry">
            <Array as="points">
              <mxPoint x="280" y="500" />
              <mxPoint x="280" y="830" />
            </Array>
          </mxGeometry>
        </mxCell>
        <mxCell id="w8rwrNL4SyuGgu5Xzu-1-47" value="Attività abbinamento oggetto-parola" style="rounded=1;whiteSpace=wrap;html=1;arcSize=40;fontColor=#000000;fillColor=#ffffc0;strokeColor=#ff0000;" parent="1" vertex="1">
          <mxGeometry x="320" y="480" width="120" height="40" as="geometry" />
        </mxCell>
        <mxCell id="w8rwrNL4SyuGgu5Xzu-1-48" style="edgeStyle=orthogonalEdgeStyle;shape=connector;rounded=0;orthogonalLoop=1;jettySize=auto;html=1;strokeColor=#ff0000;align=center;verticalAlign=bottom;fontFamily=Helvetica;fontSize=11;fontColor=default;labelBackgroundColor=default;endArrow=open;endSize=8;" parent="1" source="w8rwrNL4SyuGgu5Xzu-1-49" target="w8rwrNL4SyuGgu5Xzu-1-53" edge="1">
          <mxGeometry relative="1" as="geometry">
            <Array as="points">
              <mxPoint x="380" y="810" />
            </Array>
          </mxGeometry>
        </mxCell>
        <mxCell id="w8rwrNL4SyuGgu5Xzu-1-49" value="Attività riordinamento letterere in parola" style="rounded=1;whiteSpace=wrap;html=1;arcSize=40;fontColor=#000000;fillColor=#ffffc0;strokeColor=#ff0000;" parent="1" vertex="1">
          <mxGeometry x="320" y="600" width="120" height="40" as="geometry" />
        </mxCell>
        <mxCell id="w8rwrNL4SyuGgu5Xzu-1-50" style="edgeStyle=orthogonalEdgeStyle;shape=connector;rounded=0;orthogonalLoop=1;jettySize=auto;html=1;strokeColor=#ff0000;align=center;verticalAlign=bottom;fontFamily=Helvetica;fontSize=11;fontColor=default;labelBackgroundColor=default;endArrow=open;endSize=8;" parent="1" source="w8rwrNL4SyuGgu5Xzu-1-51" target="w8rwrNL4SyuGgu5Xzu-1-53" edge="1">
          <mxGeometry relative="1" as="geometry" />
        </mxCell>
        <mxCell id="w8rwrNL4SyuGgu5Xzu-1-51" value="Attività riordinamento numeri" style="rounded=1;whiteSpace=wrap;html=1;arcSize=40;fontColor=#000000;fillColor=#ffffc0;strokeColor=#ff0000;" parent="1" vertex="1">
          <mxGeometry x="600" y="680" width="120" height="40" as="geometry" />
        </mxCell>
        <mxCell id="w8rwrNL4SyuGgu5Xzu-1-52" style="edgeStyle=none;html=1;rounded=0;strokeColor=#ff0000;align=center;verticalAlign=bottom;fontFamily=Helvetica;fontSize=11;fontColor=default;labelBackgroundColor=default;endArrow=open;endSize=8;" parent="1" source="w8rwrNL4SyuGgu5Xzu-1-53" target="w8rwrNL4SyuGgu5Xzu-1-67" edge="1">
          <mxGeometry relative="1" as="geometry" />
        </mxCell>
        <mxCell id="w8rwrNL4SyuGgu5Xzu-1-53" value="" style="shape=rhombus;html=1;verticalLabelPosition=top;verticalAlignment=bottom;fontFamily=Helvetica;fontSize=11;fontColor=#000000;labelBackgroundColor=none;strokeColor=#ff0000;align=center;verticalAlign=top;fillColor=#ffffc0;" parent="1" vertex="1">
          <mxGeometry x="640" y="800" width="40" height="40" as="geometry" />
        </mxCell>
        <mxCell id="w8rwrNL4SyuGgu5Xzu-1-54" value="risposta corretta" style="edgeStyle=none;shape=connector;rounded=0;html=1;strokeColor=#ff0000;align=center;verticalAlign=bottom;fontFamily=Helvetica;fontSize=11;fontColor=default;labelBackgroundColor=default;endArrow=open;endSize=8;" parent="1" edge="1">
          <mxGeometry y="-10" relative="1" as="geometry">
            <mxPoint x="720" y="890" as="sourcePoint" />
            <mxPoint x="840" y="890" as="targetPoint" />
            <mxPoint as="offset" />
          </mxGeometry>
        </mxCell>
        <mxCell id="w8rwrNL4SyuGgu5Xzu-1-55" style="edgeStyle=orthogonalEdgeStyle;rounded=0;orthogonalLoop=1;jettySize=auto;html=1;strokeColor=#ff0000;align=center;verticalAlign=bottom;fontFamily=Helvetica;fontSize=11;fontColor=default;labelBackgroundColor=default;endArrow=open;endSize=8;" parent="1" source="w8rwrNL4SyuGgu5Xzu-1-67" target="w8rwrNL4SyuGgu5Xzu-1-71" edge="1">
          <mxGeometry relative="1" as="geometry">
            <Array as="points">
              <mxPoint x="710" y="970" />
            </Array>
          </mxGeometry>
        </mxCell>
        <mxCell id="w8rwrNL4SyuGgu5Xzu-1-56" value="risposta sbagliata" style="edgeLabel;html=1;align=center;verticalAlign=middle;resizable=0;points=[];fontFamily=Helvetica;fontSize=11;fontColor=default;labelBackgroundColor=default;" parent="w8rwrNL4SyuGgu5Xzu-1-55" vertex="1" connectable="0">
          <mxGeometry x="0.1011" y="2" relative="1" as="geometry">
            <mxPoint x="21" as="offset" />
          </mxGeometry>
        </mxCell>
        <mxCell id="w8rwrNL4SyuGgu5Xzu-1-57" style="edgeStyle=orthogonalEdgeStyle;shape=connector;rounded=0;orthogonalLoop=1;jettySize=auto;html=1;strokeColor=#ff0000;align=center;verticalAlign=bottom;fontFamily=Helvetica;fontSize=11;fontColor=default;labelBackgroundColor=default;endArrow=open;endSize=8;" parent="1" source="w8rwrNL4SyuGgu5Xzu-1-67" target="w8rwrNL4SyuGgu5Xzu-1-73" edge="1">
          <mxGeometry relative="1" as="geometry">
            <Array as="points">
              <mxPoint x="690" y="1050" />
            </Array>
          </mxGeometry>
        </mxCell>
        <mxCell id="w8rwrNL4SyuGgu5Xzu-1-58" value="correzione automatica" style="edgeLabel;html=1;align=center;verticalAlign=middle;resizable=0;points=[];fontFamily=Helvetica;fontSize=11;fontColor=default;labelBackgroundColor=default;" parent="w8rwrNL4SyuGgu5Xzu-1-57" vertex="1" connectable="0">
          <mxGeometry x="0.2899" relative="1" as="geometry">
            <mxPoint x="19" as="offset" />
          </mxGeometry>
        </mxCell>
        <mxCell id="w8rwrNL4SyuGgu5Xzu-1-59" style="edgeStyle=orthogonalEdgeStyle;shape=connector;rounded=0;orthogonalLoop=1;jettySize=auto;html=1;strokeColor=#ff0000;align=center;verticalAlign=bottom;fontFamily=Helvetica;fontSize=11;fontColor=default;labelBackgroundColor=default;endArrow=open;endSize=8;" parent="1" source="w8rwrNL4SyuGgu5Xzu-1-67" target="w8rwrNL4SyuGgu5Xzu-1-75" edge="1">
          <mxGeometry relative="1" as="geometry">
            <Array as="points">
              <mxPoint x="670" y="1130" />
            </Array>
          </mxGeometry>
        </mxCell>
        <mxCell id="w8rwrNL4SyuGgu5Xzu-1-60" value="click pulsante ricarica attività" style="edgeLabel;html=1;align=center;verticalAlign=middle;resizable=0;points=[];fontFamily=Helvetica;fontSize=11;fontColor=default;labelBackgroundColor=default;" parent="w8rwrNL4SyuGgu5Xzu-1-59" vertex="1" connectable="0">
          <mxGeometry x="0.4375" y="-2" relative="1" as="geometry">
            <mxPoint x="17" y="-2" as="offset" />
          </mxGeometry>
        </mxCell>
        <mxCell id="w8rwrNL4SyuGgu5Xzu-1-61" style="edgeStyle=orthogonalEdgeStyle;shape=connector;rounded=0;orthogonalLoop=1;jettySize=auto;html=1;strokeColor=#ff0000;align=center;verticalAlign=bottom;fontFamily=Helvetica;fontSize=11;fontColor=default;labelBackgroundColor=default;endArrow=open;endSize=8;" parent="1" source="w8rwrNL4SyuGgu5Xzu-1-67" target="w8rwrNL4SyuGgu5Xzu-1-82" edge="1">
          <mxGeometry relative="1" as="geometry">
            <mxPoint x="650" y="930" as="sourcePoint" />
            <mxPoint x="860" y="1220" as="targetPoint" />
            <Array as="points">
              <mxPoint x="650" y="1220" />
            </Array>
          </mxGeometry>
        </mxCell>
        <mxCell id="w8rwrNL4SyuGgu5Xzu-1-62" value="click pulsante attività successiva" style="edgeLabel;html=1;align=center;verticalAlign=middle;resizable=0;points=[];fontFamily=Helvetica;fontSize=11;fontColor=default;labelBackgroundColor=default;" parent="w8rwrNL4SyuGgu5Xzu-1-61" vertex="1" connectable="0">
          <mxGeometry x="0.3803" y="2" relative="1" as="geometry">
            <mxPoint x="52" y="2" as="offset" />
          </mxGeometry>
        </mxCell>
        <mxCell id="w8rwrNL4SyuGgu5Xzu-1-63" style="edgeStyle=orthogonalEdgeStyle;shape=connector;rounded=0;orthogonalLoop=1;jettySize=auto;html=1;strokeColor=#ff0000;align=center;verticalAlign=bottom;fontFamily=Helvetica;fontSize=11;fontColor=default;labelBackgroundColor=default;endArrow=open;endSize=8;" parent="1" source="w8rwrNL4SyuGgu5Xzu-1-67" target="w8rwrNL4SyuGgu5Xzu-1-87" edge="1">
          <mxGeometry relative="1" as="geometry">
            <Array as="points">
              <mxPoint x="630" y="1300" />
            </Array>
          </mxGeometry>
        </mxCell>
        <mxCell id="w8rwrNL4SyuGgu5Xzu-1-64" value="click pulsante attività precedente" style="edgeLabel;html=1;align=center;verticalAlign=middle;resizable=0;points=[];fontFamily=Helvetica;fontSize=11;fontColor=default;labelBackgroundColor=default;" parent="w8rwrNL4SyuGgu5Xzu-1-63" vertex="1" connectable="0">
          <mxGeometry x="0.5197" y="1" relative="1" as="geometry">
            <mxPoint x="42" y="1" as="offset" />
          </mxGeometry>
        </mxCell>
        <mxCell id="w8rwrNL4SyuGgu5Xzu-1-65" style="edgeStyle=orthogonalEdgeStyle;shape=connector;rounded=0;orthogonalLoop=1;jettySize=auto;html=1;strokeColor=#ff0000;align=center;verticalAlign=bottom;fontFamily=Helvetica;fontSize=11;fontColor=default;labelBackgroundColor=default;endArrow=open;endSize=8;" parent="1" source="w8rwrNL4SyuGgu5Xzu-1-67" target="w8rwrNL4SyuGgu5Xzu-1-15" edge="1">
          <mxGeometry relative="1" as="geometry">
            <Array as="points">
              <mxPoint x="260" y="900" />
            </Array>
          </mxGeometry>
        </mxCell>
        <mxCell id="w8rwrNL4SyuGgu5Xzu-1-66" value="click pulsante per tornare a home" style="edgeLabel;html=1;align=center;verticalAlign=middle;resizable=0;points=[];fontFamily=Helvetica;fontSize=11;fontColor=default;labelBackgroundColor=default;" parent="w8rwrNL4SyuGgu5Xzu-1-65" vertex="1" connectable="0">
          <mxGeometry x="-0.8197" y="-3" relative="1" as="geometry">
            <mxPoint x="-26" y="3" as="offset" />
          </mxGeometry>
        </mxCell>
        <mxCell id="w8rwrNL4SyuGgu5Xzu-1-67" value="Attività iniziata" style="rounded=1;whiteSpace=wrap;html=1;arcSize=40;fontColor=#000000;fillColor=#ffffc0;strokeColor=#ff0000;" parent="1" vertex="1">
          <mxGeometry x="600" y="880" width="120" height="40" as="geometry" />
        </mxCell>
        <mxCell id="w8rwrNL4SyuGgu5Xzu-1-68" style="edgeStyle=orthogonalEdgeStyle;shape=connector;rounded=0;orthogonalLoop=1;jettySize=auto;html=1;strokeColor=#ff0000;align=center;verticalAlign=bottom;fontFamily=Helvetica;fontSize=11;fontColor=default;labelBackgroundColor=default;endArrow=open;endSize=8;" parent="1" source="w8rwrNL4SyuGgu5Xzu-1-69" target="w8rwrNL4SyuGgu5Xzu-1-77" edge="1">
          <mxGeometry relative="1" as="geometry" />
        </mxCell>
        <mxCell id="w8rwrNL4SyuGgu5Xzu-1-69" value="Messaggio di successo&lt;span style=&quot;font-family: monospace; font-size: 0px; text-align: start; text-wrap-mode: nowrap;&quot;&gt;%3CmxGraphModel%3E%3Croot%3E%3CmxCell%20id%3D%220%22%2F%3E%3CmxCell%20id%3D%221%22%20parent%3D%220%22%2F%3E%3CmxCell%20id%3D%222%22%20value%3D%22Attivit%C3%A0%20iniziata%22%20style%3D%22rounded%3D1%3BwhiteSpace%3Dwrap%3Bhtml%3D1%3BarcSize%3D40%3BfontColor%3D%23000000%3BfillColor%3D%23ffffc0%3BstrokeColor%3D%23ff0000%3B%22%20vertex%3D%221%22%20parent%3D%221%22%3E%3CmxGeometry%20x%3D%22600%22%20y%3D%22880%22%20width%3D%22120%22%20height%3D%2240%22%20as%3D%22geometry%22%2F%3E%3C%2FmxCell%3E%3C%2Froot%3E%3C%2FmxGraphModel%3E&lt;/span&gt;" style="rounded=1;whiteSpace=wrap;html=1;arcSize=40;fontColor=#000000;fillColor=#ffffc0;strokeColor=#ff0000;" parent="1" vertex="1">
          <mxGeometry x="840" y="880" width="120" height="40" as="geometry" />
        </mxCell>
        <mxCell id="w8rwrNL4SyuGgu5Xzu-1-70" style="edgeStyle=orthogonalEdgeStyle;shape=connector;rounded=0;orthogonalLoop=1;jettySize=auto;html=1;strokeColor=#ff0000;align=center;verticalAlign=bottom;fontFamily=Helvetica;fontSize=11;fontColor=default;labelBackgroundColor=default;endArrow=open;endSize=8;" parent="1" source="w8rwrNL4SyuGgu5Xzu-1-71" target="w8rwrNL4SyuGgu5Xzu-1-67" edge="1">
          <mxGeometry relative="1" as="geometry">
            <Array as="points">
              <mxPoint x="700" y="990" />
            </Array>
          </mxGeometry>
        </mxCell>
        <mxCell id="w8rwrNL4SyuGgu5Xzu-1-71" value="Messaggio di errore&lt;span style=&quot;font-family: monospace; font-size: 0px; text-align: start; text-wrap-mode: nowrap;&quot;&gt;%3CmxGraphModel%3E%3Croot%3E%3CmxCell%20id%3D%220%22%2F%3E%3CmxCell%20id%3D%221%22%20parent%3D%220%22%2F%3E%3CmxCell%20id%3D%222%22%20value%3D%22Attivit%C3%A0%20iniziata%22%20style%3D%22rounded%3D1%3BwhiteSpace%3Dwrap%3Bhtml%3D1%3BarcSize%3D40%3BfontColor%3D%23000000%3BfillColor%3D%23ffffc0%3BstrokeColor%3D%23ff0000%3B%22%20vertex%3D%221%22%20parent%3D%221%22%3E%3CmxGeometry%20x%3D%22600%22%20y%3D%22880%22%20width%3D%22120%22%20height%3D%2240%22%20as%3D%22geometry%22%2F%3E%3C%2FmxCell%3E%3C%2Froot%3E%3C%2FmxGraphModel%&lt;/span&gt;" style="rounded=1;whiteSpace=wrap;html=1;arcSize=40;fontColor=#000000;fillColor=#ffffc0;strokeColor=#ff0000;" parent="1" vertex="1">
          <mxGeometry x="840" y="960" width="120" height="40" as="geometry" />
        </mxCell>
        <mxCell id="w8rwrNL4SyuGgu5Xzu-1-72" style="edgeStyle=orthogonalEdgeStyle;shape=connector;rounded=0;orthogonalLoop=1;jettySize=auto;html=1;strokeColor=#ff0000;align=center;verticalAlign=bottom;fontFamily=Helvetica;fontSize=11;fontColor=default;labelBackgroundColor=default;endArrow=open;endSize=8;" parent="1" source="w8rwrNL4SyuGgu5Xzu-1-73" target="w8rwrNL4SyuGgu5Xzu-1-67" edge="1">
          <mxGeometry relative="1" as="geometry">
            <Array as="points">
              <mxPoint x="680" y="1070" />
            </Array>
          </mxGeometry>
        </mxCell>
        <mxCell id="w8rwrNL4SyuGgu5Xzu-1-73" value="Messaggio di correzione automatica&lt;span style=&quot;font-family: monospace; font-size: 0px; text-align: start; text-wrap-mode: nowrap;&quot;&gt;%3CmxGraphModel%3E%3Croot%3E%3CmxCell%20id%3D%220%22%2F%3E%3CmxCell%20id%3D%221%22%20parent%3D%220%22%2F%3E%3CmxCell%20id%3D%222%22%20value%3D%22Attivit%C3%A0%20iniziata%22%20style%3D%22rounded%3D1%3BwhiteSpace%3Dwrap%3Bhtml%3D1%3BarcSize%3D40%3BfontColor%3D%23000000%3BfillColor%3D%23ffffc0%3BstrokeColor%3D%23ff0000%3B%22%20vertex%3D%221%22%20parent%3D%221%22%3E%3CmxGeometry%20x%3D%22600%22%20y%3D%22880%22%20width%3D%22120%22%20height%3D%2240%22%20as%3D%22geometry%22%2F%3E%3C%2FmxCell%3E%3C%2Froot%3E%3C%2FmxGraphModel%&lt;/span&gt;" style="rounded=1;whiteSpace=wrap;html=1;arcSize=40;fontColor=#000000;fillColor=#ffffc0;strokeColor=#ff0000;" parent="1" vertex="1">
          <mxGeometry x="840" y="1040" width="120" height="40" as="geometry" />
        </mxCell>
        <mxCell id="w8rwrNL4SyuGgu5Xzu-1-74" style="edgeStyle=orthogonalEdgeStyle;shape=connector;rounded=0;orthogonalLoop=1;jettySize=auto;html=1;strokeColor=#ff0000;align=center;verticalAlign=bottom;fontFamily=Helvetica;fontSize=11;fontColor=default;labelBackgroundColor=default;endArrow=open;endSize=8;" parent="1" source="w8rwrNL4SyuGgu5Xzu-1-75" target="w8rwrNL4SyuGgu5Xzu-1-67" edge="1">
          <mxGeometry relative="1" as="geometry">
            <Array as="points">
              <mxPoint x="660" y="1140" />
            </Array>
          </mxGeometry>
        </mxCell>
        <mxCell id="w8rwrNL4SyuGgu5Xzu-1-75" value="Richiesta nuovi dati" style="rounded=1;whiteSpace=wrap;html=1;arcSize=40;fontColor=#000000;fillColor=#ffffc0;strokeColor=#ff0000;" parent="1" vertex="1">
          <mxGeometry x="840" y="1120" width="120" height="40" as="geometry" />
        </mxCell>
        <mxCell id="w8rwrNL4SyuGgu5Xzu-1-76" style="edgeStyle=orthogonalEdgeStyle;shape=connector;rounded=0;orthogonalLoop=1;jettySize=auto;html=1;strokeColor=#ff0000;align=center;verticalAlign=bottom;fontFamily=Helvetica;fontSize=11;fontColor=default;labelBackgroundColor=default;endArrow=open;endSize=8;" parent="1" source="w8rwrNL4SyuGgu5Xzu-1-77" target="w8rwrNL4SyuGgu5Xzu-1-67" edge="1">
          <mxGeometry relative="1" as="geometry">
            <Array as="points">
              <mxPoint x="1060" y="930" />
              <mxPoint x="740" y="930" />
              <mxPoint x="740" y="900" />
            </Array>
          </mxGeometry>
        </mxCell>
        <mxCell id="w8rwrNL4SyuGgu5Xzu-1-77" value="Abilita pulsante per avanzare" style="rounded=1;whiteSpace=wrap;html=1;arcSize=40;fontColor=#000000;fillColor=#ffffc0;strokeColor=#ff0000;" parent="1" vertex="1">
          <mxGeometry x="1000" y="880" width="120" height="40" as="geometry" />
        </mxCell>
        <mxCell id="w8rwrNL4SyuGgu5Xzu-1-78" style="edgeStyle=orthogonalEdgeStyle;shape=connector;rounded=0;orthogonalLoop=1;jettySize=auto;html=1;strokeColor=#ff0000;align=center;verticalAlign=bottom;fontFamily=Helvetica;fontSize=11;fontColor=default;labelBackgroundColor=default;endArrow=open;endSize=8;" parent="1" source="w8rwrNL4SyuGgu5Xzu-1-82" target="w8rwrNL4SyuGgu5Xzu-1-67" edge="1">
          <mxGeometry relative="1" as="geometry">
            <Array as="points">
              <mxPoint x="880" y="1250" />
              <mxPoint x="640" y="1250" />
            </Array>
          </mxGeometry>
        </mxCell>
        <mxCell id="w8rwrNL4SyuGgu5Xzu-1-79" value="no" style="edgeLabel;html=1;align=center;verticalAlign=middle;resizable=0;points=[];fontFamily=Helvetica;fontSize=11;fontColor=default;labelBackgroundColor=default;" parent="w8rwrNL4SyuGgu5Xzu-1-78" vertex="1" connectable="0">
          <mxGeometry x="-0.8711" relative="1" as="geometry">
            <mxPoint x="37" as="offset" />
          </mxGeometry>
        </mxCell>
        <mxCell id="w8rwrNL4SyuGgu5Xzu-1-80" style="edgeStyle=orthogonalEdgeStyle;shape=connector;rounded=0;orthogonalLoop=1;jettySize=auto;html=1;strokeColor=#ff0000;align=center;verticalAlign=bottom;fontFamily=Helvetica;fontSize=11;fontColor=default;labelBackgroundColor=default;endArrow=open;endSize=8;" parent="1" edge="1">
          <mxGeometry relative="1" as="geometry">
            <mxPoint x="900" y="1220" as="sourcePoint" />
            <mxPoint x="700" y="430" as="targetPoint" />
            <Array as="points">
              <mxPoint x="1160" y="1220" />
              <mxPoint x="1160" y="430" />
            </Array>
          </mxGeometry>
        </mxCell>
        <mxCell id="w8rwrNL4SyuGgu5Xzu-1-81" value="sì" style="edgeLabel;html=1;align=center;verticalAlign=middle;resizable=0;points=[];fontFamily=Helvetica;fontSize=11;fontColor=default;labelBackgroundColor=default;" parent="w8rwrNL4SyuGgu5Xzu-1-80" vertex="1" connectable="0">
          <mxGeometry x="-0.9707" y="1" relative="1" as="geometry">
            <mxPoint x="-2" y="-9" as="offset" />
          </mxGeometry>
        </mxCell>
        <mxCell id="w8rwrNL4SyuGgu5Xzu-1-82" value="attività corretta?" style="rhombus;whiteSpace=wrap;html=1;fontColor=#000000;fillColor=#ffffc0;strokeColor=#ff0000;fontFamily=Helvetica;fontSize=11;labelBackgroundColor=none;" parent="1" vertex="1">
          <mxGeometry x="840" y="1200" width="80" height="40" as="geometry" />
        </mxCell>
        <mxCell id="w8rwrNL4SyuGgu5Xzu-1-83" style="edgeStyle=orthogonalEdgeStyle;shape=connector;rounded=0;orthogonalLoop=1;jettySize=auto;html=1;strokeColor=#ff0000;align=center;verticalAlign=bottom;fontFamily=Helvetica;fontSize=11;fontColor=default;labelBackgroundColor=default;endArrow=open;endSize=8;" parent="1" source="w8rwrNL4SyuGgu5Xzu-1-87" target="w8rwrNL4SyuGgu5Xzu-1-89" edge="1">
          <mxGeometry relative="1" as="geometry" />
        </mxCell>
        <mxCell id="w8rwrNL4SyuGgu5Xzu-1-84" value="no" style="edgeLabel;html=1;align=center;verticalAlign=middle;resizable=0;points=[];fontFamily=Helvetica;fontSize=11;fontColor=default;labelBackgroundColor=default;" parent="w8rwrNL4SyuGgu5Xzu-1-83" vertex="1" connectable="0">
          <mxGeometry x="-0.51" y="-1" relative="1" as="geometry">
            <mxPoint x="11" y="-9" as="offset" />
          </mxGeometry>
        </mxCell>
        <mxCell id="w8rwrNL4SyuGgu5Xzu-1-85" style="edgeStyle=orthogonalEdgeStyle;shape=connector;rounded=0;orthogonalLoop=1;jettySize=auto;html=1;strokeColor=#ff0000;align=center;verticalAlign=bottom;fontFamily=Helvetica;fontSize=11;fontColor=default;labelBackgroundColor=default;endArrow=open;endSize=8;" parent="1" source="w8rwrNL4SyuGgu5Xzu-1-87" target="w8rwrNL4SyuGgu5Xzu-1-41" edge="1">
          <mxGeometry relative="1" as="geometry">
            <Array as="points">
              <mxPoint x="960" y="1300" />
              <mxPoint x="960" y="1440" />
              <mxPoint x="240" y="1440" />
              <mxPoint x="240" y="460" />
              <mxPoint x="660" y="460" />
            </Array>
          </mxGeometry>
        </mxCell>
        <mxCell id="w8rwrNL4SyuGgu5Xzu-1-86" value="sì" style="edgeLabel;html=1;align=center;verticalAlign=middle;resizable=0;points=[];fontFamily=Helvetica;fontSize=11;fontColor=default;labelBackgroundColor=default;" parent="w8rwrNL4SyuGgu5Xzu-1-85" vertex="1" connectable="0">
          <mxGeometry x="-0.9794" y="1" relative="1" as="geometry">
            <mxPoint x="-14" y="-9" as="offset" />
          </mxGeometry>
        </mxCell>
        <mxCell id="w8rwrNL4SyuGgu5Xzu-1-87" value="ci sono attività prima?" style="rhombus;whiteSpace=wrap;html=1;fontColor=#000000;fillColor=#ffffc0;strokeColor=#ff0000;fontFamily=Helvetica;fontSize=11;labelBackgroundColor=none;" parent="1" vertex="1">
          <mxGeometry x="840" y="1280" width="80" height="40" as="geometry" />
        </mxCell>
        <mxCell id="w8rwrNL4SyuGgu5Xzu-1-88" style="edgeStyle=orthogonalEdgeStyle;shape=connector;rounded=0;orthogonalLoop=1;jettySize=auto;html=1;strokeColor=#ff0000;align=center;verticalAlign=bottom;fontFamily=Helvetica;fontSize=11;fontColor=default;labelBackgroundColor=default;endArrow=open;endSize=8;" parent="1" source="w8rwrNL4SyuGgu5Xzu-1-89" target="w8rwrNL4SyuGgu5Xzu-1-67" edge="1">
          <mxGeometry relative="1" as="geometry">
            <Array as="points">
              <mxPoint x="620" y="1380" />
            </Array>
          </mxGeometry>
        </mxCell>
        <mxCell id="w8rwrNL4SyuGgu5Xzu-1-89" value="Messaggio di errore" style="rounded=1;whiteSpace=wrap;html=1;arcSize=40;fontColor=#000000;fillColor=#ffffc0;strokeColor=#ff0000;" parent="1" vertex="1">
          <mxGeometry x="820" y="1360" width="120" height="40" as="geometry" />
        </mxCell>
        <mxCell id="w8rwrNL4SyuGgu5Xzu-1-122" style="edgeStyle=orthogonalEdgeStyle;shape=connector;rounded=0;orthogonalLoop=1;jettySize=auto;html=1;strokeColor=#ff0000;align=center;verticalAlign=bottom;fontFamily=Helvetica;fontSize=11;fontColor=default;labelBackgroundColor=default;endArrow=open;endSize=8;" parent="1" source="w8rwrNL4SyuGgu5Xzu-1-15" target="w8rwrNL4SyuGgu5Xzu-1-143" edge="1">
          <mxGeometry relative="1" as="geometry">
            <mxPoint x="-180" y="600" as="sourcePoint" />
            <Array as="points">
              <mxPoint x="350" y="320" />
              <mxPoint x="-180" y="320" />
            </Array>
          </mxGeometry>
        </mxCell>
        <mxCell id="w8rwrNL4SyuGgu5Xzu-1-123" value="click nome paziente" style="edgeLabel;html=1;align=center;verticalAlign=middle;resizable=0;points=[];fontFamily=Helvetica;fontSize=11;fontColor=default;labelBackgroundColor=default;" parent="w8rwrNL4SyuGgu5Xzu-1-122" vertex="1" connectable="0">
          <mxGeometry x="-0.1037" y="1" relative="1" as="geometry">
            <mxPoint x="-47" y="-1" as="offset" />
          </mxGeometry>
        </mxCell>
        <mxCell id="w8rwrNL4SyuGgu5Xzu-1-134" style="edgeStyle=orthogonalEdgeStyle;shape=connector;rounded=0;orthogonalLoop=1;jettySize=auto;html=1;strokeColor=#ff0000;align=center;verticalAlign=bottom;fontFamily=Helvetica;fontSize=11;fontColor=default;labelBackgroundColor=default;endArrow=open;endSize=8;" parent="1" source="w8rwrNL4SyuGgu5Xzu-1-15" edge="1">
          <mxGeometry relative="1" as="geometry">
            <mxPoint x="-240" y="570" as="sourcePoint" />
            <mxPoint x="-360.0000000000002" y="570" as="targetPoint" />
            <Array as="points">
              <mxPoint x="330" y="340" />
              <mxPoint x="-340" y="340" />
              <mxPoint x="-340" y="570" />
            </Array>
          </mxGeometry>
        </mxCell>
        <mxCell id="w8rwrNL4SyuGgu5Xzu-1-135" value="click pulsante&lt;div&gt;creazione paziente&lt;/div&gt;" style="edgeLabel;html=1;align=center;verticalAlign=middle;resizable=0;points=[];fontFamily=Helvetica;fontSize=11;fontColor=default;labelBackgroundColor=default;" parent="w8rwrNL4SyuGgu5Xzu-1-134" vertex="1" connectable="0">
          <mxGeometry x="-0.2923" relative="1" as="geometry">
            <mxPoint x="65" as="offset" />
          </mxGeometry>
        </mxCell>
        <mxCell id="w8rwrNL4SyuGgu5Xzu-1-136" style="edgeStyle=orthogonalEdgeStyle;shape=connector;rounded=0;orthogonalLoop=1;jettySize=auto;html=1;strokeColor=#ff0000;align=center;verticalAlign=bottom;fontFamily=Helvetica;fontSize=11;fontColor=default;labelBackgroundColor=default;endArrow=open;endSize=8;" parent="1" source="w8rwrNL4SyuGgu5Xzu-1-15" target="w8rwrNL4SyuGgu5Xzu-1-164" edge="1">
          <mxGeometry relative="1" as="geometry">
            <Array as="points">
              <mxPoint x="320" y="230" />
              <mxPoint x="-220" y="230" />
              <mxPoint x="-220" y="620" />
              <mxPoint x="-300" y="620" />
              <mxPoint x="-300" y="900" />
            </Array>
            <mxPoint x="-220" y="600" as="sourcePoint" />
          </mxGeometry>
        </mxCell>
        <mxCell id="w8rwrNL4SyuGgu5Xzu-1-137" value="click pusalnte&lt;div&gt;informazioni&lt;/div&gt;&lt;div&gt;paziente&lt;/div&gt;" style="edgeLabel;html=1;align=center;verticalAlign=middle;resizable=0;points=[];fontFamily=Helvetica;fontSize=11;fontColor=default;labelBackgroundColor=default;" parent="w8rwrNL4SyuGgu5Xzu-1-136" vertex="1" connectable="0">
          <mxGeometry x="0.5208" relative="1" as="geometry">
            <mxPoint x="460" y="-400" as="offset" />
          </mxGeometry>
        </mxCell>
        <mxCell id="w8rwrNL4SyuGgu5Xzu-1-139" style="edgeStyle=orthogonalEdgeStyle;shape=connector;rounded=0;orthogonalLoop=1;jettySize=auto;html=1;strokeColor=#ff0000;align=center;verticalAlign=bottom;fontFamily=Helvetica;fontSize=11;fontColor=default;labelBackgroundColor=default;endArrow=open;endSize=8;" parent="1" source="w8rwrNL4SyuGgu5Xzu-1-143" target="w8rwrNL4SyuGgu5Xzu-1-23" edge="1">
          <mxGeometry relative="1" as="geometry">
            <Array as="points">
              <mxPoint x="200" y="700" />
              <mxPoint x="200" y="420" />
            </Array>
          </mxGeometry>
        </mxCell>
        <mxCell id="w8rwrNL4SyuGgu5Xzu-1-140" value="click pulsante avvio sessione corrente" style="edgeLabel;html=1;align=center;verticalAlign=middle;resizable=0;points=[];fontFamily=Helvetica;fontSize=11;fontColor=default;labelBackgroundColor=default;" parent="w8rwrNL4SyuGgu5Xzu-1-139" vertex="1" connectable="0">
          <mxGeometry x="-0.9367" y="1" relative="1" as="geometry">
            <mxPoint x="82" y="1" as="offset" />
          </mxGeometry>
        </mxCell>
        <mxCell id="w8rwrNL4SyuGgu5Xzu-1-141" style="edgeStyle=orthogonalEdgeStyle;shape=connector;rounded=0;orthogonalLoop=1;jettySize=auto;html=1;strokeColor=#ff0000;align=center;verticalAlign=bottom;fontFamily=Helvetica;fontSize=11;fontColor=default;labelBackgroundColor=default;endArrow=open;endSize=8;" parent="1" source="w8rwrNL4SyuGgu5Xzu-1-143" target="w8rwrNL4SyuGgu5Xzu-1-145" edge="1">
          <mxGeometry relative="1" as="geometry" />
        </mxCell>
        <mxCell id="w8rwrNL4SyuGgu5Xzu-1-142" value="click pulsante salva&lt;div&gt;sessione corrente&lt;/div&gt;" style="edgeLabel;html=1;align=center;verticalAlign=middle;resizable=0;points=[];fontFamily=Helvetica;fontSize=11;fontColor=default;labelBackgroundColor=default;" parent="w8rwrNL4SyuGgu5Xzu-1-141" vertex="1" connectable="0">
          <mxGeometry x="-0.0199" y="1" relative="1" as="geometry">
            <mxPoint as="offset" />
          </mxGeometry>
        </mxCell>
        <mxCell id="w8rwrNL4SyuGgu5Xzu-1-143" value="Menù sessione corrente del paziente aperto" style="rounded=1;whiteSpace=wrap;html=1;arcSize=40;fontColor=#000000;fillColor=#ffffc0;strokeColor=#ff0000;" parent="1" vertex="1">
          <mxGeometry x="-240" y="680" width="120" height="40" as="geometry" />
        </mxCell>
        <mxCell id="w8rwrNL4SyuGgu5Xzu-1-144" style="edgeStyle=orthogonalEdgeStyle;shape=connector;rounded=0;orthogonalLoop=1;jettySize=auto;html=1;strokeColor=#ff0000;align=center;verticalAlign=bottom;fontFamily=Helvetica;fontSize=11;fontColor=default;labelBackgroundColor=default;endArrow=open;endSize=8;" parent="1" source="w8rwrNL4SyuGgu5Xzu-1-145" target="w8rwrNL4SyuGgu5Xzu-1-143" edge="1">
          <mxGeometry relative="1" as="geometry">
            <Array as="points">
              <mxPoint x="-260" y="820" />
              <mxPoint x="-260" y="700" />
            </Array>
          </mxGeometry>
        </mxCell>
        <mxCell id="w8rwrNL4SyuGgu5Xzu-1-145" value="Salvataggio sessione su database" style="rounded=1;whiteSpace=wrap;html=1;arcSize=40;fontColor=#000000;fillColor=#ffffc0;strokeColor=#ff0000;" parent="1" vertex="1">
          <mxGeometry x="-240" y="800" width="120" height="40" as="geometry" />
        </mxCell>
        <mxCell id="w8rwrNL4SyuGgu5Xzu-1-146" style="edgeStyle=orthogonalEdgeStyle;shape=connector;rounded=0;orthogonalLoop=1;jettySize=auto;html=1;strokeColor=#ff0000;align=center;verticalAlign=bottom;fontFamily=Helvetica;fontSize=11;fontColor=default;labelBackgroundColor=default;endArrow=open;endSize=8;" parent="1" source="w8rwrNL4SyuGgu5Xzu-1-148" target="w8rwrNL4SyuGgu5Xzu-1-153" edge="1">
          <mxGeometry relative="1" as="geometry" />
        </mxCell>
        <mxCell id="w8rwrNL4SyuGgu5Xzu-1-147" value="click pulsante salva" style="edgeLabel;html=1;align=center;verticalAlign=middle;resizable=0;points=[];fontFamily=Helvetica;fontSize=11;fontColor=default;labelBackgroundColor=default;" parent="w8rwrNL4SyuGgu5Xzu-1-146" vertex="1" connectable="0">
          <mxGeometry x="-0.237" y="-1" relative="1" as="geometry">
            <mxPoint as="offset" />
          </mxGeometry>
        </mxCell>
        <mxCell id="w8rwrNL4SyuGgu5Xzu-1-148" value="Modale creazione paziente" style="rounded=1;whiteSpace=wrap;html=1;arcSize=40;fontColor=#000000;fillColor=#ffffc0;strokeColor=#ff0000;" parent="1" vertex="1">
          <mxGeometry x="-480" y="560" width="120" height="40" as="geometry" />
        </mxCell>
        <mxCell id="w8rwrNL4SyuGgu5Xzu-1-149" style="edgeStyle=orthogonalEdgeStyle;shape=connector;rounded=0;orthogonalLoop=1;jettySize=auto;html=1;strokeColor=#ff0000;align=center;verticalAlign=bottom;fontFamily=Helvetica;fontSize=11;fontColor=default;labelBackgroundColor=default;endArrow=open;endSize=8;" parent="1" source="w8rwrNL4SyuGgu5Xzu-1-153" target="w8rwrNL4SyuGgu5Xzu-1-155" edge="1">
          <mxGeometry relative="1" as="geometry" />
        </mxCell>
        <mxCell id="w8rwrNL4SyuGgu5Xzu-1-150" value="sì" style="edgeLabel;html=1;align=center;verticalAlign=middle;resizable=0;points=[];fontFamily=Helvetica;fontSize=11;fontColor=default;labelBackgroundColor=default;" parent="w8rwrNL4SyuGgu5Xzu-1-149" vertex="1" connectable="0">
          <mxGeometry x="-0.5269" y="-2" relative="1" as="geometry">
            <mxPoint x="12" as="offset" />
          </mxGeometry>
        </mxCell>
        <mxCell id="w8rwrNL4SyuGgu5Xzu-1-151" style="edgeStyle=orthogonalEdgeStyle;shape=connector;rounded=0;orthogonalLoop=1;jettySize=auto;html=1;strokeColor=#ff0000;align=center;verticalAlign=bottom;fontFamily=Helvetica;fontSize=11;fontColor=default;labelBackgroundColor=default;endArrow=open;endSize=8;" parent="1" source="w8rwrNL4SyuGgu5Xzu-1-153" target="w8rwrNL4SyuGgu5Xzu-1-157" edge="1">
          <mxGeometry relative="1" as="geometry" />
        </mxCell>
        <mxCell id="w8rwrNL4SyuGgu5Xzu-1-152" value="no" style="edgeLabel;html=1;align=center;verticalAlign=middle;resizable=0;points=[];fontFamily=Helvetica;fontSize=11;fontColor=default;labelBackgroundColor=default;" parent="w8rwrNL4SyuGgu5Xzu-1-151" vertex="1" connectable="0">
          <mxGeometry x="-0.3564" y="-1" relative="1" as="geometry">
            <mxPoint x="19" y="-9" as="offset" />
          </mxGeometry>
        </mxCell>
        <mxCell id="w8rwrNL4SyuGgu5Xzu-1-153" value="dati corretti?" style="rhombus;whiteSpace=wrap;html=1;fontColor=#000000;fillColor=#ffffc0;strokeColor=#ff0000;fontFamily=Helvetica;fontSize=11;labelBackgroundColor=none;" parent="1" vertex="1">
          <mxGeometry x="-460" y="640" width="80" height="40" as="geometry" />
        </mxCell>
        <mxCell id="w8rwrNL4SyuGgu5Xzu-1-154" style="edgeStyle=orthogonalEdgeStyle;shape=connector;rounded=0;orthogonalLoop=1;jettySize=auto;html=1;strokeColor=#ff0000;align=center;verticalAlign=bottom;fontFamily=Helvetica;fontSize=11;fontColor=default;labelBackgroundColor=default;endArrow=open;endSize=8;" parent="1" source="w8rwrNL4SyuGgu5Xzu-1-155" target="w8rwrNL4SyuGgu5Xzu-1-15" edge="1">
          <mxGeometry relative="1" as="geometry">
            <Array as="points">
              <mxPoint x="-320" y="740" />
              <mxPoint x="-320" y="360" />
              <mxPoint x="400" y="360" />
              <mxPoint x="400" y="180" />
            </Array>
            <mxPoint x="-240" y="590" as="targetPoint" />
          </mxGeometry>
        </mxCell>
        <mxCell id="w8rwrNL4SyuGgu5Xzu-1-155" value="Modifica paziente su database" style="rounded=1;whiteSpace=wrap;html=1;arcSize=40;fontColor=#000000;fillColor=#ffffc0;strokeColor=#ff0000;" parent="1" vertex="1">
          <mxGeometry x="-480" y="720" width="120" height="40" as="geometry" />
        </mxCell>
        <mxCell id="w8rwrNL4SyuGgu5Xzu-1-156" style="edgeStyle=orthogonalEdgeStyle;shape=connector;rounded=0;orthogonalLoop=1;jettySize=auto;html=1;strokeColor=#ff0000;align=center;verticalAlign=bottom;fontFamily=Helvetica;fontSize=11;fontColor=default;labelBackgroundColor=default;endArrow=open;endSize=8;" parent="1" source="w8rwrNL4SyuGgu5Xzu-1-157" target="w8rwrNL4SyuGgu5Xzu-1-148" edge="1">
          <mxGeometry relative="1" as="geometry">
            <Array as="points">
              <mxPoint x="-580" y="580" />
            </Array>
          </mxGeometry>
        </mxCell>
        <mxCell id="w8rwrNL4SyuGgu5Xzu-1-157" value="Messaggio di errore" style="rounded=1;whiteSpace=wrap;html=1;arcSize=40;fontColor=#000000;fillColor=#ffffc0;strokeColor=#ff0000;" parent="1" vertex="1">
          <mxGeometry x="-640" y="640" width="120" height="40" as="geometry" />
        </mxCell>
        <mxCell id="w8rwrNL4SyuGgu5Xzu-1-158" style="edgeStyle=orthogonalEdgeStyle;shape=connector;rounded=0;orthogonalLoop=1;jettySize=auto;html=1;strokeColor=#ff0000;align=center;verticalAlign=bottom;fontFamily=Helvetica;fontSize=11;fontColor=default;labelBackgroundColor=default;endArrow=open;endSize=8;" parent="1" source="w8rwrNL4SyuGgu5Xzu-1-164" target="w8rwrNL4SyuGgu5Xzu-1-155" edge="1">
          <mxGeometry relative="1" as="geometry">
            <Array as="points">
              <mxPoint x="-420" y="830" />
              <mxPoint x="-420" y="830" />
            </Array>
          </mxGeometry>
        </mxCell>
        <mxCell id="w8rwrNL4SyuGgu5Xzu-1-159" value="click pulsante&lt;div&gt;elimina paziente&lt;/div&gt;" style="edgeLabel;html=1;align=center;verticalAlign=middle;resizable=0;points=[];fontFamily=Helvetica;fontSize=11;fontColor=default;labelBackgroundColor=default;" parent="w8rwrNL4SyuGgu5Xzu-1-158" vertex="1" connectable="0">
          <mxGeometry x="-0.5261" y="-1" relative="1" as="geometry">
            <mxPoint x="-1" y="-32" as="offset" />
          </mxGeometry>
        </mxCell>
        <mxCell id="w8rwrNL4SyuGgu5Xzu-1-160" style="edgeStyle=orthogonalEdgeStyle;shape=connector;rounded=0;orthogonalLoop=1;jettySize=auto;html=1;strokeColor=#ff0000;align=center;verticalAlign=bottom;fontFamily=Helvetica;fontSize=11;fontColor=default;labelBackgroundColor=default;endArrow=open;endSize=8;" parent="1" source="w8rwrNL4SyuGgu5Xzu-1-164" target="w8rwrNL4SyuGgu5Xzu-1-166" edge="1">
          <mxGeometry relative="1" as="geometry">
            <Array as="points">
              <mxPoint x="-550" y="900" />
              <mxPoint x="-550" y="900" />
            </Array>
          </mxGeometry>
        </mxCell>
        <mxCell id="w8rwrNL4SyuGgu5Xzu-1-161" value="click pulsante&lt;div&gt;elimina sessione&lt;/div&gt;" style="edgeLabel;html=1;align=center;verticalAlign=middle;resizable=0;points=[];fontFamily=Helvetica;fontSize=11;fontColor=default;labelBackgroundColor=default;" parent="w8rwrNL4SyuGgu5Xzu-1-160" vertex="1" connectable="0">
          <mxGeometry x="0.3134" y="-3" relative="1" as="geometry">
            <mxPoint x="28" y="3" as="offset" />
          </mxGeometry>
        </mxCell>
        <mxCell id="w8rwrNL4SyuGgu5Xzu-1-162" style="edgeStyle=orthogonalEdgeStyle;shape=connector;rounded=0;orthogonalLoop=1;jettySize=auto;html=1;strokeColor=#ff0000;align=center;verticalAlign=bottom;fontFamily=Helvetica;fontSize=11;fontColor=default;labelBackgroundColor=default;endArrow=open;endSize=8;" parent="1" source="w8rwrNL4SyuGgu5Xzu-1-164" target="w8rwrNL4SyuGgu5Xzu-1-226" edge="1">
          <mxGeometry relative="1" as="geometry" />
        </mxCell>
        <mxCell id="w8rwrNL4SyuGgu5Xzu-1-163" value="click pulsante salva" style="edgeLabel;html=1;align=center;verticalAlign=middle;resizable=0;points=[];fontFamily=Helvetica;fontSize=11;fontColor=default;labelBackgroundColor=default;" parent="w8rwrNL4SyuGgu5Xzu-1-162" vertex="1" connectable="0">
          <mxGeometry x="-0.2593" relative="1" as="geometry">
            <mxPoint as="offset" />
          </mxGeometry>
        </mxCell>
        <mxCell id="w8rwrNL4SyuGgu5Xzu-1-164" value="Modale informazioni paziente" style="rounded=1;whiteSpace=wrap;html=1;arcSize=40;fontColor=#000000;fillColor=#ffffc0;strokeColor=#ff0000;" parent="1" vertex="1">
          <mxGeometry x="-480" y="880" width="120" height="40" as="geometry" />
        </mxCell>
        <mxCell id="w8rwrNL4SyuGgu5Xzu-1-165" style="edgeStyle=orthogonalEdgeStyle;shape=connector;rounded=0;orthogonalLoop=1;jettySize=auto;html=1;strokeColor=#ff0000;align=center;verticalAlign=bottom;fontFamily=Helvetica;fontSize=11;fontColor=default;labelBackgroundColor=default;endArrow=open;endSize=8;" parent="1" source="w8rwrNL4SyuGgu5Xzu-1-166" target="w8rwrNL4SyuGgu5Xzu-1-15" edge="1">
          <mxGeometry relative="1" as="geometry">
            <Array as="points">
              <mxPoint x="-700" y="540" />
              <mxPoint x="-190" y="540" />
              <mxPoint x="-190" y="310" />
              <mxPoint x="340" y="310" />
            </Array>
            <mxPoint x="-180" y="560" as="targetPoint" />
          </mxGeometry>
        </mxCell>
        <mxCell id="w8rwrNL4SyuGgu5Xzu-1-166" value="Modifica storico su database" style="rounded=1;whiteSpace=wrap;html=1;arcSize=40;fontColor=#000000;fillColor=#ffffc0;strokeColor=#ff0000;" parent="1" vertex="1">
          <mxGeometry x="-760" y="880" width="120" height="40" as="geometry" />
        </mxCell>
        <mxCell id="w8rwrNL4SyuGgu5Xzu-1-168" style="edgeStyle=orthogonalEdgeStyle;shape=connector;rounded=0;orthogonalLoop=1;jettySize=auto;html=1;strokeColor=#ff0000;align=center;verticalAlign=bottom;fontFamily=Helvetica;fontSize=11;fontColor=default;labelBackgroundColor=default;endArrow=open;endSize=8;" parent="1" source="w8rwrNL4SyuGgu5Xzu-1-15" target="w8rwrNL4SyuGgu5Xzu-1-173" edge="1">
          <mxGeometry relative="1" as="geometry">
            <mxPoint x="-480" y="340" as="sourcePoint" />
            <Array as="points">
              <mxPoint x="290" y="280" />
              <mxPoint x="-300" y="280" />
            </Array>
          </mxGeometry>
        </mxCell>
        <mxCell id="w8rwrNL4SyuGgu5Xzu-1-169" value="click pulsante&lt;div&gt;informazioni personali&lt;/div&gt;" style="edgeLabel;html=1;align=center;verticalAlign=middle;resizable=0;points=[];fontFamily=Helvetica;fontSize=11;fontColor=default;labelBackgroundColor=default;" parent="w8rwrNL4SyuGgu5Xzu-1-168" vertex="1" connectable="0">
          <mxGeometry x="0.0516" y="-2" relative="1" as="geometry">
            <mxPoint x="-2" y="2" as="offset" />
          </mxGeometry>
        </mxCell>
        <mxCell id="w8rwrNL4SyuGgu5Xzu-1-171" style="edgeStyle=orthogonalEdgeStyle;shape=connector;rounded=0;orthogonalLoop=1;jettySize=auto;html=1;strokeColor=#ff0000;align=center;verticalAlign=bottom;fontFamily=Helvetica;fontSize=11;fontColor=default;labelBackgroundColor=default;endArrow=open;endSize=8;" parent="1" source="w8rwrNL4SyuGgu5Xzu-1-173" target="w8rwrNL4SyuGgu5Xzu-1-178" edge="1">
          <mxGeometry relative="1" as="geometry" />
        </mxCell>
        <mxCell id="w8rwrNL4SyuGgu5Xzu-1-172" value="click pulsante salva" style="edgeLabel;html=1;align=center;verticalAlign=middle;resizable=0;points=[];fontFamily=Helvetica;fontSize=11;fontColor=default;labelBackgroundColor=default;" parent="w8rwrNL4SyuGgu5Xzu-1-171" vertex="1" connectable="0">
          <mxGeometry x="-0.0148" y="1" relative="1" as="geometry">
            <mxPoint x="1" as="offset" />
          </mxGeometry>
        </mxCell>
        <mxCell id="w8rwrNL4SyuGgu5Xzu-1-173" value="Modale informazioni personali" style="rounded=1;whiteSpace=wrap;html=1;arcSize=40;fontColor=#000000;fillColor=#ffffc0;strokeColor=#ff0000;" parent="1" vertex="1">
          <mxGeometry x="-360" y="160" width="120" height="40" as="geometry" />
        </mxCell>
        <mxCell id="w8rwrNL4SyuGgu5Xzu-1-174" style="edgeStyle=orthogonalEdgeStyle;shape=connector;rounded=0;orthogonalLoop=1;jettySize=auto;html=1;strokeColor=#ff0000;align=center;verticalAlign=bottom;fontFamily=Helvetica;fontSize=11;fontColor=default;labelBackgroundColor=default;endArrow=open;endSize=8;" parent="1" source="w8rwrNL4SyuGgu5Xzu-1-178" target="w8rwrNL4SyuGgu5Xzu-1-180" edge="1">
          <mxGeometry relative="1" as="geometry" />
        </mxCell>
        <mxCell id="w8rwrNL4SyuGgu5Xzu-1-175" value="no" style="edgeLabel;html=1;align=center;verticalAlign=middle;resizable=0;points=[];fontFamily=Helvetica;fontSize=11;fontColor=default;labelBackgroundColor=default;" parent="w8rwrNL4SyuGgu5Xzu-1-174" vertex="1" connectable="0">
          <mxGeometry x="-0.6185" y="-3" relative="1" as="geometry">
            <mxPoint x="-11" y="-13" as="offset" />
          </mxGeometry>
        </mxCell>
        <mxCell id="w8rwrNL4SyuGgu5Xzu-1-176" style="edgeStyle=orthogonalEdgeStyle;shape=connector;rounded=0;orthogonalLoop=1;jettySize=auto;html=1;strokeColor=#ff0000;align=center;verticalAlign=bottom;fontFamily=Helvetica;fontSize=11;fontColor=default;labelBackgroundColor=default;endArrow=open;endSize=8;" parent="1" source="w8rwrNL4SyuGgu5Xzu-1-178" target="w8rwrNL4SyuGgu5Xzu-1-182" edge="1">
          <mxGeometry relative="1" as="geometry">
            <Array as="points">
              <mxPoint x="-360" y="100" />
              <mxPoint x="-360" y="100" />
            </Array>
          </mxGeometry>
        </mxCell>
        <mxCell id="w8rwrNL4SyuGgu5Xzu-1-177" value="sì" style="edgeLabel;html=1;align=center;verticalAlign=middle;resizable=0;points=[];fontFamily=Helvetica;fontSize=11;fontColor=default;labelBackgroundColor=default;" parent="w8rwrNL4SyuGgu5Xzu-1-176" vertex="1" connectable="0">
          <mxGeometry x="-0.3938" y="-2" relative="1" as="geometry">
            <mxPoint x="19" y="-8" as="offset" />
          </mxGeometry>
        </mxCell>
        <mxCell id="w8rwrNL4SyuGgu5Xzu-1-178" value="dati corretti?" style="rhombus;whiteSpace=wrap;html=1;fontColor=#000000;fillColor=#ffffc0;strokeColor=#ff0000;fontFamily=Helvetica;fontSize=11;labelBackgroundColor=none;" parent="1" vertex="1">
          <mxGeometry x="-340" y="80" width="80" height="40" as="geometry" />
        </mxCell>
        <mxCell id="w8rwrNL4SyuGgu5Xzu-1-179" style="edgeStyle=orthogonalEdgeStyle;shape=connector;rounded=0;orthogonalLoop=1;jettySize=auto;html=1;strokeColor=#ff0000;align=center;verticalAlign=bottom;fontFamily=Helvetica;fontSize=11;fontColor=default;labelBackgroundColor=default;endArrow=open;endSize=8;" parent="1" source="w8rwrNL4SyuGgu5Xzu-1-180" target="w8rwrNL4SyuGgu5Xzu-1-173" edge="1">
          <mxGeometry relative="1" as="geometry">
            <Array as="points">
              <mxPoint x="-140" y="180" />
            </Array>
          </mxGeometry>
        </mxCell>
        <mxCell id="w8rwrNL4SyuGgu5Xzu-1-180" value="Messaggio di errore" style="rounded=1;whiteSpace=wrap;html=1;arcSize=40;fontColor=#000000;fillColor=#ffffc0;strokeColor=#ff0000;" parent="1" vertex="1">
          <mxGeometry x="-200" y="80" width="120" height="40" as="geometry" />
        </mxCell>
        <mxCell id="w8rwrNL4SyuGgu5Xzu-1-181" style="edgeStyle=orthogonalEdgeStyle;shape=connector;rounded=0;orthogonalLoop=1;jettySize=auto;html=1;strokeColor=#ff0000;align=center;verticalAlign=bottom;fontFamily=Helvetica;fontSize=11;fontColor=default;labelBackgroundColor=default;endArrow=open;endSize=8;" parent="1" source="w8rwrNL4SyuGgu5Xzu-1-182" target="w8rwrNL4SyuGgu5Xzu-1-173" edge="1">
          <mxGeometry relative="1" as="geometry">
            <Array as="points">
              <mxPoint x="-460" y="180" />
            </Array>
          </mxGeometry>
        </mxCell>
        <mxCell id="w8rwrNL4SyuGgu5Xzu-1-182" value="Salvataggio dati paziente su database" style="rounded=1;whiteSpace=wrap;html=1;arcSize=40;fontColor=#000000;fillColor=#ffffc0;strokeColor=#ff0000;" parent="1" vertex="1">
          <mxGeometry x="-520" y="80" width="120" height="40" as="geometry" />
        </mxCell>
        <mxCell id="w8rwrNL4SyuGgu5Xzu-1-222" style="edgeStyle=orthogonalEdgeStyle;shape=connector;rounded=0;orthogonalLoop=1;jettySize=auto;html=1;strokeColor=#ff0000;align=center;verticalAlign=bottom;fontFamily=Helvetica;fontSize=11;fontColor=default;labelBackgroundColor=default;endArrow=open;endSize=8;" parent="1" source="w8rwrNL4SyuGgu5Xzu-1-226" target="w8rwrNL4SyuGgu5Xzu-1-155" edge="1">
          <mxGeometry relative="1" as="geometry">
            <Array as="points">
              <mxPoint x="-500" y="980" />
              <mxPoint x="-500" y="740" />
            </Array>
          </mxGeometry>
        </mxCell>
        <mxCell id="w8rwrNL4SyuGgu5Xzu-1-223" value="sì" style="edgeLabel;html=1;align=center;verticalAlign=middle;resizable=0;points=[];fontFamily=Helvetica;fontSize=11;fontColor=default;labelBackgroundColor=default;" parent="w8rwrNL4SyuGgu5Xzu-1-222" vertex="1" connectable="0">
          <mxGeometry x="-0.8748" y="-1" relative="1" as="geometry">
            <mxPoint x="19" y="-9" as="offset" />
          </mxGeometry>
        </mxCell>
        <mxCell id="w8rwrNL4SyuGgu5Xzu-1-224" style="edgeStyle=orthogonalEdgeStyle;shape=connector;rounded=0;orthogonalLoop=1;jettySize=auto;html=1;strokeColor=#ff0000;align=center;verticalAlign=bottom;fontFamily=Helvetica;fontSize=11;fontColor=default;labelBackgroundColor=default;endArrow=open;endSize=8;" parent="1" source="w8rwrNL4SyuGgu5Xzu-1-226" target="w8rwrNL4SyuGgu5Xzu-1-228" edge="1">
          <mxGeometry relative="1" as="geometry" />
        </mxCell>
        <mxCell id="w8rwrNL4SyuGgu5Xzu-1-225" value="no" style="edgeLabel;html=1;align=center;verticalAlign=middle;resizable=0;points=[];fontFamily=Helvetica;fontSize=11;fontColor=default;labelBackgroundColor=default;" parent="w8rwrNL4SyuGgu5Xzu-1-224" vertex="1" connectable="0">
          <mxGeometry x="-0.5704" y="2" relative="1" as="geometry">
            <mxPoint x="8" as="offset" />
          </mxGeometry>
        </mxCell>
        <mxCell id="w8rwrNL4SyuGgu5Xzu-1-226" value="dati corretti?" style="rhombus;whiteSpace=wrap;html=1;fontColor=#000000;fillColor=#ffffc0;strokeColor=#ff0000;fontFamily=Helvetica;fontSize=11;labelBackgroundColor=none;" parent="1" vertex="1">
          <mxGeometry x="-460" y="960" width="80" height="40" as="geometry" />
        </mxCell>
        <mxCell id="w8rwrNL4SyuGgu5Xzu-1-227" style="edgeStyle=orthogonalEdgeStyle;shape=connector;rounded=0;orthogonalLoop=1;jettySize=auto;html=1;strokeColor=#ff0000;align=center;verticalAlign=bottom;fontFamily=Helvetica;fontSize=11;fontColor=default;labelBackgroundColor=default;endArrow=open;endSize=8;" parent="1" source="w8rwrNL4SyuGgu5Xzu-1-228" target="w8rwrNL4SyuGgu5Xzu-1-164" edge="1">
          <mxGeometry relative="1" as="geometry">
            <Array as="points">
              <mxPoint x="-300" y="1060" />
              <mxPoint x="-300" y="900" />
            </Array>
          </mxGeometry>
        </mxCell>
        <mxCell id="w8rwrNL4SyuGgu5Xzu-1-228" value="Messaggio di errore" style="rounded=1;whiteSpace=wrap;html=1;arcSize=40;fontColor=#000000;fillColor=#ffffc0;strokeColor=#ff0000;" parent="1" vertex="1">
          <mxGeometry x="-480" y="1040" width="120" height="40" as="geometry" />
        </mxCell>
        <mxCell id="w8rwrNL4SyuGgu5Xzu-1-283" style="edgeStyle=orthogonalEdgeStyle;shape=connector;rounded=0;orthogonalLoop=1;jettySize=auto;html=1;strokeColor=#ff0000;align=center;verticalAlign=bottom;fontFamily=Helvetica;fontSize=11;fontColor=default;labelBackgroundColor=default;endArrow=open;endSize=8;" parent="1" source="w8rwrNL4SyuGgu5Xzu-1-143" target="w8rwrNL4SyuGgu5Xzu-1-292" edge="1">
          <mxGeometry relative="1" as="geometry">
            <Array as="points">
              <mxPoint x="-140" y="540" />
            </Array>
            <mxPoint x="-60" y="480" as="sourcePoint" />
          </mxGeometry>
        </mxCell>
        <mxCell id="w8rwrNL4SyuGgu5Xzu-1-284" value="selezione difficoltà&lt;div&gt;attività&lt;/div&gt;" style="edgeLabel;html=1;align=center;verticalAlign=middle;resizable=0;points=[];fontFamily=Helvetica;fontSize=11;fontColor=default;labelBackgroundColor=default;" parent="w8rwrNL4SyuGgu5Xzu-1-283" vertex="1" connectable="0">
          <mxGeometry x="-0.07" relative="1" as="geometry">
            <mxPoint x="101" as="offset" />
          </mxGeometry>
        </mxCell>
        <mxCell id="w8rwrNL4SyuGgu5Xzu-1-285" style="edgeStyle=orthogonalEdgeStyle;shape=connector;rounded=0;orthogonalLoop=1;jettySize=auto;html=1;strokeColor=#ff0000;align=center;verticalAlign=bottom;fontFamily=Helvetica;fontSize=11;fontColor=default;labelBackgroundColor=default;endArrow=open;endSize=8;" parent="1" source="w8rwrNL4SyuGgu5Xzu-1-143" target="w8rwrNL4SyuGgu5Xzu-1-294" edge="1">
          <mxGeometry relative="1" as="geometry">
            <Array as="points">
              <mxPoint x="-110" y="700" />
              <mxPoint x="-110" y="610" />
            </Array>
            <mxPoint x="-90" y="480" as="sourcePoint" />
          </mxGeometry>
        </mxCell>
        <mxCell id="w8rwrNL4SyuGgu5Xzu-1-286" value="&lt;font style=&quot;font-size: 7px;&quot;&gt;click pulsante&lt;/font&gt;&lt;div&gt;&lt;span style=&quot;background-color: light-dark(#ffffff, var(--ge-dark-color, #121212)); color: light-dark(rgb(0, 0, 0), rgb(255, 255, 255));&quot;&gt;&lt;font style=&quot;font-size: 7px;&quot;&gt;aggiunta/rimozione&lt;/font&gt;&lt;/span&gt;&lt;div&gt;&lt;div&gt;&lt;font style=&quot;font-size: 7px;&quot;&gt;/sposta su/sposta giù&lt;/font&gt;&lt;/div&gt;&lt;div&gt;&lt;font style=&quot;font-size: 7px;&quot;&gt;/cambiamento numero&lt;span style=&quot;background-color: light-dark(#ffffff, var(--ge-dark-color, #121212)); color: light-dark(rgb(0, 0, 0), rgb(255, 255, 255));&quot;&gt;&amp;nbsp;&lt;/span&gt;&lt;/font&gt;&lt;div&gt;&lt;span style=&quot;color: light-dark(rgb(0, 0, 0), rgb(255, 255, 255)); background-color: light-dark(#ffffff, var(--ge-dark-color, #121212));&quot;&gt;&lt;font style=&quot;font-size: 7px;&quot;&gt;attività&lt;/font&gt;&lt;/span&gt;&lt;div&gt;&lt;span style=&quot;background-color: light-dark(#ffffff, var(--ge-dark-color, #121212)); color: light-dark(rgb(0, 0, 0), rgb(255, 255, 255));&quot;&gt;&lt;font style=&quot;font-size: 7px;&quot;&gt;a sessione corrente&lt;/font&gt;&lt;/span&gt;&lt;/div&gt;&lt;/div&gt;&lt;/div&gt;&lt;/div&gt;&lt;/div&gt;" style="edgeLabel;html=1;align=center;verticalAlign=middle;resizable=0;points=[];fontFamily=Helvetica;fontSize=11;fontColor=default;labelBackgroundColor=default;" parent="w8rwrNL4SyuGgu5Xzu-1-285" vertex="1" connectable="0">
          <mxGeometry x="-0.0254" y="2" relative="1" as="geometry">
            <mxPoint x="58" y="23" as="offset" />
          </mxGeometry>
        </mxCell>
        <mxCell id="w8rwrNL4SyuGgu5Xzu-1-287" value="" style="edgeStyle=orthogonalEdgeStyle;html=1;verticalAlign=bottom;endArrow=open;endSize=8;strokeColor=#ff0000;rounded=0;" parent="1" source="w8rwrNL4SyuGgu5Xzu-1-143" target="w8rwrNL4SyuGgu5Xzu-1-290" edge="1">
          <mxGeometry relative="1" as="geometry">
            <mxPoint x="40" y="470" as="targetPoint" />
            <mxPoint x="-40" y="470" as="sourcePoint" />
            <Array as="points">
              <mxPoint x="-160" y="470" />
            </Array>
          </mxGeometry>
        </mxCell>
        <mxCell id="w8rwrNL4SyuGgu5Xzu-1-288" value="ricerca&lt;div&gt;&lt;span style=&quot;background-color: light-dark(#ffffff, var(--ge-dark-color, #121212)); color: light-dark(rgb(0, 0, 0), rgb(255, 255, 255));&quot;&gt;attività&lt;/span&gt;&lt;/div&gt;" style="edgeLabel;html=1;align=center;verticalAlign=middle;resizable=0;points=[];" parent="w8rwrNL4SyuGgu5Xzu-1-287" vertex="1" connectable="0">
          <mxGeometry x="-0.433" relative="1" as="geometry">
            <mxPoint x="160" y="-93" as="offset" />
          </mxGeometry>
        </mxCell>
        <mxCell id="w8rwrNL4SyuGgu5Xzu-1-289" style="edgeStyle=orthogonalEdgeStyle;shape=connector;rounded=0;orthogonalLoop=1;jettySize=auto;html=1;strokeColor=#ff0000;align=center;verticalAlign=bottom;fontFamily=Helvetica;fontSize=11;fontColor=default;labelBackgroundColor=default;endArrow=open;endSize=8;" parent="1" source="w8rwrNL4SyuGgu5Xzu-1-290" target="w8rwrNL4SyuGgu5Xzu-1-143" edge="1">
          <mxGeometry relative="1" as="geometry">
            <mxPoint x="40" y="450.0000000000001" as="sourcePoint" />
            <mxPoint x="-169.9655172413793" y="680" as="targetPoint" />
            <Array as="points">
              <mxPoint x="-170" y="450" />
            </Array>
          </mxGeometry>
        </mxCell>
        <mxCell id="w8rwrNL4SyuGgu5Xzu-1-290" value="Aggiornamento menù" style="rounded=1;whiteSpace=wrap;html=1;arcSize=40;fontColor=#000000;fillColor=#ffffc0;strokeColor=#ff0000;" parent="1" vertex="1">
          <mxGeometry x="40" y="440" width="120" height="40" as="geometry" />
        </mxCell>
        <mxCell id="w8rwrNL4SyuGgu5Xzu-1-291" style="edgeStyle=orthogonalEdgeStyle;shape=connector;rounded=0;orthogonalLoop=1;jettySize=auto;html=1;strokeColor=#ff0000;align=center;verticalAlign=bottom;fontFamily=Helvetica;fontSize=11;fontColor=default;labelBackgroundColor=default;endArrow=open;endSize=8;" parent="1" source="w8rwrNL4SyuGgu5Xzu-1-292" target="w8rwrNL4SyuGgu5Xzu-1-143" edge="1">
          <mxGeometry relative="1" as="geometry">
            <Array as="points">
              <mxPoint x="100" y="510" />
              <mxPoint x="-150" y="510" />
            </Array>
            <mxPoint x="-50" y="480" as="targetPoint" />
          </mxGeometry>
        </mxCell>
        <mxCell id="w8rwrNL4SyuGgu5Xzu-1-292" value="Aggiornamento difficoltà attività" style="rounded=1;whiteSpace=wrap;html=1;arcSize=40;fontColor=#000000;fillColor=#ffffc0;strokeColor=#ff0000;" parent="1" vertex="1">
          <mxGeometry x="40" y="520" width="120" height="40" as="geometry" />
        </mxCell>
        <mxCell id="w8rwrNL4SyuGgu5Xzu-1-293" style="edgeStyle=orthogonalEdgeStyle;shape=connector;rounded=0;orthogonalLoop=1;jettySize=auto;html=1;strokeColor=#ff0000;align=center;verticalAlign=bottom;fontFamily=Helvetica;fontSize=11;fontColor=default;labelBackgroundColor=default;endArrow=open;endSize=8;" parent="1" source="w8rwrNL4SyuGgu5Xzu-1-294" target="w8rwrNL4SyuGgu5Xzu-1-143" edge="1">
          <mxGeometry relative="1" as="geometry">
            <Array as="points">
              <mxPoint x="100" y="590" />
              <mxPoint x="-130" y="590" />
            </Array>
            <mxPoint x="-80" y="480" as="targetPoint" />
          </mxGeometry>
        </mxCell>
        <mxCell id="w8rwrNL4SyuGgu5Xzu-1-294" value="Aggiornamento menù sessione corrente" style="rounded=1;whiteSpace=wrap;html=1;arcSize=40;fontColor=#000000;fillColor=#ffffc0;strokeColor=#ff0000;" parent="1" vertex="1">
          <mxGeometry x="40" y="600" width="120" height="40" as="geometry" />
        </mxCell>
        <mxCell id="w8rwrNL4SyuGgu5Xzu-1-296" style="edgeStyle=orthogonalEdgeStyle;shape=connector;rounded=0;orthogonalLoop=1;jettySize=auto;html=1;strokeColor=#ff0000;align=center;verticalAlign=bottom;fontFamily=Helvetica;fontSize=11;fontColor=default;labelBackgroundColor=default;endArrow=open;endSize=8;" parent="1" source="w8rwrNL4SyuGgu5Xzu-1-143" target="w8rwrNL4SyuGgu5Xzu-1-300" edge="1">
          <mxGeometry relative="1" as="geometry">
            <Array as="points">
              <mxPoint x="100" y="710" />
            </Array>
            <mxPoint x="320" y="770" as="sourcePoint" />
          </mxGeometry>
        </mxCell>
        <mxCell id="w8rwrNL4SyuGgu5Xzu-1-297" value="click pulsante&lt;div&gt;informazioni attività&amp;nbsp;&lt;/div&gt;" style="edgeLabel;html=1;align=center;verticalAlign=middle;resizable=0;points=[];fontFamily=Helvetica;fontSize=11;fontColor=default;labelBackgroundColor=default;" parent="w8rwrNL4SyuGgu5Xzu-1-296" vertex="1" connectable="0">
          <mxGeometry x="-0.06" y="1" relative="1" as="geometry">
            <mxPoint x="93" y="21" as="offset" />
          </mxGeometry>
        </mxCell>
        <mxCell id="w8rwrNL4SyuGgu5Xzu-1-298" style="edgeStyle=orthogonalEdgeStyle;shape=connector;rounded=0;orthogonalLoop=1;jettySize=auto;html=1;strokeColor=#ff0000;align=center;verticalAlign=bottom;fontFamily=Helvetica;fontSize=11;fontColor=default;labelBackgroundColor=default;endArrow=open;endSize=8;" parent="1" source="w8rwrNL4SyuGgu5Xzu-1-300" target="w8rwrNL4SyuGgu5Xzu-1-143" edge="1">
          <mxGeometry relative="1" as="geometry">
            <mxPoint x="160" y="790" as="sourcePoint" />
            <mxPoint x="320" y="790" as="targetPoint" />
            <Array as="points">
              <mxPoint x="-80" y="780" />
              <mxPoint x="-80" y="720" />
            </Array>
          </mxGeometry>
        </mxCell>
        <mxCell id="w8rwrNL4SyuGgu5Xzu-1-299" value="chiusura modale" style="edgeLabel;html=1;align=center;verticalAlign=middle;resizable=0;points=[];fontFamily=Helvetica;fontSize=11;fontColor=default;labelBackgroundColor=default;" parent="w8rwrNL4SyuGgu5Xzu-1-298" vertex="1" connectable="0">
          <mxGeometry x="-0.1135" y="-1" relative="1" as="geometry">
            <mxPoint x="47" y="1" as="offset" />
          </mxGeometry>
        </mxCell>
        <mxCell id="w8rwrNL4SyuGgu5Xzu-1-300" value="Modale con informazioni attività" style="rounded=1;whiteSpace=wrap;html=1;arcSize=40;fontColor=#000000;fillColor=#ffffc0;strokeColor=#ff0000;" parent="1" vertex="1">
          <mxGeometry x="40" y="760" width="120" height="40" as="geometry" />
        </mxCell>
      </root>
    </mxGraphModel>
  </diagram>
</mxfile>
